<svg xmlns="http://www.w3.org/2000/svg" width="18" height="15" viewBox="0 0 18 15">
  <metadata><?xpacket begin="﻿" id="W5M0MpCehiHzreSzNTczkc9d"?>
<x:xmpmeta xmlns:x="adobe:ns:meta/" x:xmptk="Adobe XMP Core 5.6-c138 79.159824, 2016/09/14-01:09:01        ">
   <rdf:RDF xmlns:rdf="http://www.w3.org/1999/02/22-rdf-syntax-ns#">
      <rdf:Description rdf:about=""/>
   </rdf:RDF>
</x:xmpmeta>
                                                                                                    
                                                                                                    
                                                                                                    
                                                                                                    
                                                                                                    
                                                                                                    
                                                                                                    
                                                                                                    
                                                                                                    
                                                                                                    
                                                                                                    
                                                                                                    
                                                                                                    
                                                                                                    
                                                                                                    
                                                                                                    
                                                                                                    
                                                                                                    
                                                                                                    
                                                                                                    
                           
<?xpacket end="w"?></metadata>
<defs>
    <style>
      .cls-1 {
        fill-rule: evenodd;
        opacity: 0.2;
      }
    </style>
  </defs>
  <path id="Forma_1" data-name="Forma 1" class="cls-1" d="M1398.35,34.872a0.335,0.335,0,0,1-.03-0.158,0.1,0.1,0,0,0-.08-0.105,0.144,0.144,0,0,1-.09-0.064,0.161,0.161,0,0,0-.13-0.035l-0.13-.012h-3.58a1.748,1.748,0,0,1-1.3-.551,1.823,1.823,0,0,1-.54-1.324V24.375a1.822,1.822,0,0,1,.54-1.324,1.748,1.748,0,0,1,1.3-.551h3.67a0.315,0.315,0,0,0,.23-0.077,0.384,0.384,0,0,0,.12-0.228,1.438,1.438,0,0,0,.03-0.275,1.59,1.59,0,0,0,0-.31c-0.01-.125-0.01-0.2-0.01-0.235a0.376,0.376,0,0,0-.11-0.264,0.366,0.366,0,0,0-.26-0.111h-3.67a3.167,3.167,0,0,0-2.34.99,3.271,3.271,0,0,0-.97,2.384v8.248a3.27,3.27,0,0,0,.97,2.384,3.167,3.167,0,0,0,2.34.99h3.67a0.317,0.317,0,0,0,.23-0.076,0.387,0.387,0,0,0,.12-0.229,1.44,1.44,0,0,0,.03-0.275,1.6,1.6,0,0,0,0-.311C1398.35,34.982,1398.35,34.9,1398.35,34.872Zm10.43-6.9-6.24-6.373a0.719,0.719,0,0,0-1.04,0,0.743,0.743,0,0,0-.21.527V25.5h-5.15a0.675,0.675,0,0,0-.51.223,0.712,0.712,0,0,0-.22.527v4.5a0.71,0.71,0,0,0,.22.527,0.675,0.675,0,0,0,.51.223h5.15v3.374a0.743,0.743,0,0,0,.21.527,0.719,0.719,0,0,0,1.04,0l6.24-6.374A0.742,0.742,0,0,0,1408.78,27.972Z" transform="translate(-1391 -21)"/>
</svg>
