<svg xmlns="http://www.w3.org/2000/svg" width="18" height="18" viewBox="0 0 18 18">
  <metadata><?xpacket begin="﻿" id="W5M0MpCehiHzreSzNTczkc9d"?>
<x:xmpmeta xmlns:x="adobe:ns:meta/" x:xmptk="Adobe XMP Core 5.6-c138 79.159824, 2016/09/14-01:09:01        ">
   <rdf:RDF xmlns:rdf="http://www.w3.org/1999/02/22-rdf-syntax-ns#">
      <rdf:Description rdf:about=""/>
   </rdf:RDF>
</x:xmpmeta>
                                                                                                    
                                                                                                    
                                                                                                    
                                                                                                    
                                                                                                    
                                                                                                    
                                                                                                    
                                                                                                    
                                                                                                    
                                                                                                    
                                                                                                    
                                                                                                    
                                                                                                    
                                                                                                    
                                                                                                    
                                                                                                    
                                                                                                    
                                                                                                    
                                                                                                    
                                                                                                    
                           
<?xpacket end="w"?></metadata>
<defs>
    <style>
      .cls-1 {
        fill: #fff;
        fill-rule: evenodd;
      }
    </style>
  </defs>
  <path id="Search_Icon" data-name="Search Icon" class="cls-1" d="M1381.56,107.216a0.16,0.16,0,0,1-.04-0.034c-1.96-1.7-3.32-2.942-4-3.569a1.489,1.489,0,0,1-.22-0.209,1.15,1.15,0,0,1-.27-0.743c0-.051.01-0.1,0.01-0.148a1.311,1.311,0,0,1,.07-0.284,1.447,1.447,0,0,1,.11-0.2A6.962,6.962,0,0,0,1371,92.008a0.382,0.382,0,0,0-.04,0,6.962,6.962,0,0,0-.05,13.924h0.05a6.9,6.9,0,0,0,3.08-.72c0.03-.014.05-0.026,0.08-0.038a1.152,1.152,0,0,1,.43-0.105h0.06a1.14,1.14,0,0,1,.73.263,0.994,0.994,0,0,1,.18.174c0.65,0.656,1.99,2.053,3.71,4,0.01,0.014.03,0.029,0.04,0.044a1.6,1.6,0,0,0,2.27-.061A1.651,1.651,0,0,0,1381.56,107.216Zm-6.94-4.567a5.174,5.174,0,0,1-3.66,1.506h-0.04a5.186,5.186,0,0,1,.04-10.373h0.03a5.194,5.194,0,0,1,5.16,5.22,5.022,5.022,0,0,1-.32,1.769A5.244,5.244,0,0,1,1374.62,102.649Z" transform="translate(-1364 -92)"/>
</svg>
